<svg data-noselect="" viewBox="0 0 400 300" width="400" height="300" preserveAspectRatio="none" version="1.1" xmlns="http://www.w3.org/2000/svg" style="background: rgba(255, 255, 255, 0);"><defs></defs> <g id="shape_qzKFxtjhbn" transform="translate(62.711864406779675,38.13559322033898) rotate(0,0,0) scale(1.271186440677966,1.271186440677966)" filter="" style="cursor: move; opacity: 1;"><g><rect fill="rgba(0,0,0,0)" width="236" height="152" x="-10" y="-10"></rect><svg version="1.1" id="图层_1" xmlns="http://www.w3.org/2000/svg" xmlns:xlink="http://www.w3.org/1999/xlink" x="0px" y="0px" style="enable-background:new 0 0 283.46 226.77;" xml:space="preserve" viewBox="32.72599792480469 47.12000274658203 216.7629852294922 132.61099243164062" width="216" height="132" preserveAspectRatio="none" data-parent="shape_qzKFxtjhbn">
<g>
	<path style="" d="M127.799,133.272h26.616c1.581-1.498,3.159-2.749,4.79-3.789h-36.196
		C124.64,130.523,126.218,131.774,127.799,133.272z" fill="none"></path>
	<path style="" d="M141.107,150.323c4.94-7.414,8.888-12.724,12.753-16.524h-25.507
		C132.219,137.599,136.167,142.909,141.107,150.323z" fill="none"></path>
	<path style="" d="M121.144,128.395h39.927c3.152-1.665,6.584-2.657,10.71-3.229h-61.348
		C114.559,125.739,117.991,126.73,121.144,128.395z" fill="none"></path>
	<path style="" d="M141.107,55.417c-31.986,0-58.009,26.022-58.009,58.009c0,3.76,0.373,7.433,1.059,10.997
		c4.364,0,8.158,0,10.695,0c5.438,0,9.958,0.112,13.866,0.533v-1.403h64.778v1.403c3.908-0.421,8.428-0.533,13.866-0.533
		c2.538,0,6.331,0,10.695,0c0.687-3.563,1.059-7.236,1.059-10.997C199.116,81.439,173.093,55.417,141.107,55.417z M130.299,120.85
		h-21.582v-2.174h21.582V120.85z M130.299,116.534h-21.582v-2.702h21.582V116.534z M130.299,112.251h-21.582v-3.295h21.582V112.251z
		 M130.299,107.901h-21.582v-3.789h21.582V107.901z M149.212,79.829h-16.211c-1.801,0-2.702,0.901-2.702,2.702v21.022h-21.582
		v-2.142c0-1.516,0.246-2.883,0.739-4.103c0.493-1.219,1.253-2.367,2.283-3.443c2.233-2.175,4.818-3.262,7.752-3.262V72.382
		c0-0.615,0.143-1.181,0.428-1.697c0.286-0.516,0.687-0.923,1.204-1.219c0.517-0.296,1.094-0.445,1.731-0.445h36.47
		c0.637,0,1.214,0.148,1.731,0.445c0.517,0.296,0.917,0.703,1.204,1.219c0.286,0.516,0.429,1.082,0.429,1.697v11.466
		c0,0.901-0.451,1.351-1.351,1.351h-8.073c-0.944,0-1.395-0.45-1.351-1.351V82.53C151.914,80.729,151.013,79.829,149.212,79.829z
		 M173.496,120.85h-21.582v-2.174h21.582V120.85z M173.496,116.534h-21.582v-2.702h21.582V116.534z" fill="none"></path>
	<rect x="151.914" y="113.832" style="" width="21.582" height="2.702" fill="#C30D23"></rect>
	<path style="" d="M108.718,123.552v1.403c0.586,0.063,1.156,0.133,1.715,0.211h61.348
		c0.559-0.078,1.13-0.148,1.715-0.211v-1.403H108.718z" fill="#C30D23"></path>
	<rect x="108.718" y="113.832" style="" width="21.582" height="2.702" fill="#C30D23"></rect>
	<rect x="108.718" y="108.956" style="" width="21.582" height="3.295" fill="#C30D23"></rect>
	<rect x="151.914" y="118.676" style="" width="21.582" height="2.174" fill="#C30D23"></rect>
	<rect x="108.718" y="104.112" style="" width="21.582" height="3.789" fill="#C30D23"></rect>
	<path style="" d="M128.354,133.799h25.507c0.185-0.182,0.37-0.353,0.554-0.527h-26.616
		C127.984,133.447,128.169,133.618,128.354,133.799z" fill="#C30D23"></path>
	<path style="" d="M151.914,83.848c-0.044,0.901,0.407,1.351,1.351,1.351h8.073c0.9,0,1.351-0.45,1.351-1.351V72.382
		c0-0.615-0.143-1.181-0.429-1.697c-0.286-0.516-0.687-0.923-1.204-1.219c-0.517-0.296-1.094-0.445-1.731-0.445h-36.47
		c-0.637,0-1.214,0.148-1.731,0.445c-0.517,0.296-0.918,0.703-1.204,1.219c-0.286,0.516-0.428,1.082-0.428,1.697v18.221
		c-2.935,0-5.519,1.087-7.752,3.262c-1.03,1.076-1.79,2.224-2.283,3.443c-0.493,1.219-0.739,2.587-0.739,4.103v2.142h21.582V82.53
		c0-1.801,0.901-2.702,2.702-2.702h16.211c1.801,0,2.702,0.901,2.702,2.702V83.848z" fill="#C30D23"></path>
	<path style="" d="M123.009,129.483h36.196c0.613-0.391,1.234-0.753,1.866-1.087h-39.927
		C121.775,128.73,122.397,129.092,123.009,129.483z" fill="#C30D23"></path>
	<rect x="108.718" y="118.676" style="" width="21.582" height="2.174" fill="#C30D23"></rect>
	<path style="" d="M83.098,113.426c0-31.986,26.023-58.009,58.009-58.009s58.009,26.022,58.009,58.009
		c0,3.76-0.372,7.433-1.059,10.997c2.65,0,5.509,0,8.427,0c0.6-3.58,0.929-7.25,0.929-10.997c0-36.561-29.745-66.306-66.306-66.306
		c-36.561,0-66.306,29.745-66.306,66.306c0,3.747,0.329,7.417,0.929,10.997c2.917,0,5.777,0,8.427,0
		C83.47,120.859,83.098,117.186,83.098,113.426z" fill="#C30D23"></path>
	<path style="" d="M187.567,160.674h-12.869c-9.487,6.764-21.078,10.76-33.591,10.76
		c-12.514,0-24.104-3.996-33.591-10.76H94.648c11.974,11.775,28.379,19.057,46.459,19.057S175.592,172.449,187.567,160.674z" fill="#C30D23"></path>
	<path style="" d="M142.674,159.859c22.885-44.176,60.259-11.976,85.284-26.289l-7.859-9.147
		C197.434,136.088,159.777,111.475,142.674,159.859z" fill="#F8B62D"></path>
	<path style="" d="M235.544,146.876c0.936-0.364,1.874-0.76,2.811-1.207l-2.811-3.271l-5.167-6.014
		c-34.669,15.002-62.938-16.623-84.565,24.29c-0.864,1.635-1.72,3.372-2.563,5.247c1.157-1.904,2.326-3.641,3.505-5.247
		C172.575,125.515,203.705,159.248,235.544,146.876z" fill="#EA5514"></path>
	<path style="" d="M235.544,151.635c-35.848,10.653-58.777-19.716-84.208,9.04c-2.162,2.444-4.341,5.305-6.548,8.666
		c3.619-3.739,7.077-6.564,10.431-8.666c14.93-9.355,27.766-4.227,43.145,0c13.85,3.806,29.761,6.874,51.125-2.048l-7.866-9.153
		C239.555,150.332,237.53,151.044,235.544,151.635z" fill="#C30D23"></path>
	<path style="" d="M139.54,159.859c-17.103-48.384-54.76-23.771-77.425-35.437l-7.859,9.147
		C79.28,147.883,116.655,115.683,139.54,159.859z" fill="#F8B62D"></path>
	<path style="" d="M51.837,136.385l-5.167,6.014l-2.811,3.271c0.938,0.446,1.874,0.843,2.811,1.207
		c31.839,12.372,62.969-21.361,88.791,13.798c1.179,1.605,2.348,3.343,3.504,5.247c-0.843-1.875-1.699-3.612-2.563-5.247
		C114.775,119.762,86.506,151.387,51.837,136.385z" fill="#EA5514"></path>
	<path style="" d="M46.67,151.635c-1.986-0.59-4.01-1.303-6.078-2.162l-7.866,9.153
		c21.364,8.922,37.276,5.854,51.125,2.048c15.378-4.227,28.214-9.355,43.145,0c3.354,2.102,6.813,4.926,10.431,8.666
		c-2.207-3.36-4.387-6.222-6.548-8.666C105.447,131.919,82.517,162.288,46.67,151.635z" fill="#C30D23"></path>
</g>
</svg></g> <!----></g><g id="shapge_w9HcVzFpGh" transform="translate(136.4406779661017,213.5593220338983) rotate(0,0,0) scale(1.271186440677966,1.271186440677966)" filter="" style="cursor: move; opacity: 1;"><g><svg xmlns="http://www.w3.org/2000/svg" version="1.1" xmlns:xlink="http://www.w3.org/1999/xlink" overflow="hidden" style="top:0; left: 0" width="100" height="38" viewBox="0 0 100.352 38.279999999999994" preserveAspectRatio="none" data-parent="shapge_w9HcVzFpGh"><rect fill="rgba(0,0,0,0)" width="100" height="38"></rect> <rect opacity="0"></rect><g transform="translate(0 0)" data-width="95.352"><path fill="#C30D23" d="M10.93 0.38L10.93 0.38L10.93 0.38Q8.29 0.38 6.21-0.93L6.21-0.93L6.21-0.93Q4.12-2.23 2.90-4.70L2.90-4.70L2.90-4.70Q1.68-7.16 1.68-10.61L1.68-10.61L1.68-10.61Q1.68-14.07 2.91-16.53L2.91-16.53L2.91-16.53Q4.15-19.00 6.28-20.33L6.28-20.33L6.28-20.33Q8.41-21.66 11.11-21.66L11.11-21.66L11.11-21.66Q13.05-21.66 14.53-20.88L14.53-20.88L14.53-20.88Q16.01-20.10 16.94-19.02L16.94-19.02L15.49-17.28L15.49-17.28Q14.67-18.18 13.59-18.75L13.59-18.75L13.59-18.75Q12.50-19.31 11.14-19.31L11.14-19.31L11.14-19.31Q8.12-19.31 6.28-16.99L6.28-16.99L6.28-16.99Q4.44-14.67 4.44-10.70L4.44-10.70L4.44-10.70Q4.44-6.67 6.22-4.32L6.22-4.32L6.22-4.32Q8.00-1.97 11.05-1.97L11.05-1.97L11.05-1.97Q12.59-1.97 13.78-2.60L13.78-2.60L13.78-2.60Q14.96-3.22 15.98-4.35L15.98-4.35L17.46-2.67L17.46-2.67Q16.21-1.19 14.60-0.41L14.60-0.41L14.60-0.41Q12.99 0.38 10.93 0.38Z" transform="translate(0 25.52)"></path><path fill="#C30D23" d="M10.93 0.38L10.93 0.38L10.93 0.38Q8.29 0.38 6.21-0.93L6.21-0.93L6.21-0.93Q4.12-2.23 2.90-4.70L2.90-4.70L2.90-4.70Q1.68-7.16 1.68-10.61L1.68-10.61L1.68-10.61Q1.68-14.07 2.91-16.53L2.91-16.53L2.91-16.53Q4.15-19.00 6.28-20.33L6.28-20.33L6.28-20.33Q8.41-21.66 11.11-21.66L11.11-21.66L11.11-21.66Q13.05-21.66 14.53-20.88L14.53-20.88L14.53-20.88Q16.01-20.10 16.94-19.02L16.94-19.02L15.49-17.28L15.49-17.28Q14.67-18.18 13.59-18.75L13.59-18.75L13.59-18.75Q12.50-19.31 11.14-19.31L11.14-19.31L11.14-19.31Q8.12-19.31 6.28-16.99L6.28-16.99L6.28-16.99Q4.44-14.67 4.44-10.70L4.44-10.70L4.44-10.70Q4.44-6.67 6.22-4.32L6.22-4.32L6.22-4.32Q8.00-1.97 11.05-1.97L11.05-1.97L11.05-1.97Q12.59-1.97 13.78-2.60L13.78-2.60L13.78-2.60Q14.96-3.22 15.98-4.35L15.98-4.35L17.46-2.67L17.46-2.67Q16.21-1.19 14.60-0.41L14.60-0.41L14.60-0.41Q12.99 0.38 10.93 0.38Z" transform="translate(18.502000000000002 25.52)"></path><path fill="#C30D23" d="" transform="translate(37.004000000000005 25.52)"></path><path fill="#C30D23" d="M8.79 0.38L8.79 0.38L8.79 0.38Q6.87 0.38 5.21-0.59L5.21-0.59L5.21-0.59Q3.54-1.57 2.51-3.41L2.51-3.41L2.51-3.41Q1.48-5.25 1.48-7.86L1.48-7.86L1.48-7.86Q1.48-10.50 2.51-12.34L2.51-12.34L2.51-12.34Q3.54-14.18 5.21-15.17L5.21-15.17L5.21-15.17Q6.87-16.15 8.79-16.15L8.79-16.15L8.79-16.15Q10.73-16.15 12.38-15.17L12.38-15.17L12.38-15.17Q14.04-14.18 15.07-12.34L15.07-12.34L15.07-12.34Q16.10-10.50 16.10-7.86L16.10-7.86L16.10-7.86Q16.10-5.25 15.07-3.41L15.07-3.41L15.07-3.41Q14.04-1.57 12.38-0.59L12.38-0.59L12.38-0.59Q10.73 0.38 8.79 0.38ZM8.79-1.83L8.79-1.83L8.79-1.83Q10.85-1.83 12.11-3.48L12.11-3.48L12.11-3.48Q13.37-5.13 13.37-7.86L13.37-7.86L13.37-7.86Q13.37-10.59 12.11-12.27L12.11-12.27L12.11-12.27Q10.85-13.95 8.79-13.95L8.79-13.95L8.79-13.95Q6.76-13.95 5.50-12.27L5.50-12.27L5.50-12.27Q4.23-10.59 4.23-7.86L4.23-7.86L4.23-7.86Q4.23-5.13 5.50-3.48L5.50-3.48L5.50-3.48Q6.76-1.83 8.79-1.83Z" transform="translate(48.54600000000001 25.52)"></path><path fill="#C30D23" d="M5.31 0L2.67 0L2.67-15.75L4.84-15.75L5.08-12.88L5.16-12.88L5.16-12.88Q6.00-14.38 7.15-15.27L7.15-15.27L7.15-15.27Q8.29-16.15 9.63-16.15L9.63-16.15L9.63-16.15Q10.67-16.15 11.31-15.81L11.31-15.81L10.82-13.49L10.82-13.49Q10.44-13.63 10.11-13.69L10.11-13.69L10.11-13.69Q9.77-13.75 9.28-13.75L9.28-13.75L9.28-13.75Q8.29-13.75 7.21-12.93L7.21-12.93L7.21-12.93Q6.12-12.12 5.31-10.12L5.31-10.12L5.31 0Z" transform="translate(66.12 25.52)"></path><path fill="#C30D23" d="M8.03 0.38L8.03 0.38L8.03 0.38Q5.08 0.38 3.31-1.77L3.31-1.77L3.31-1.77Q1.54-3.92 1.54-7.86L1.54-7.86L1.54-7.86Q1.54-10.41 2.49-12.27L2.49-12.27L2.49-12.27Q3.45-14.12 5.00-15.14L5.00-15.14L5.00-15.14Q6.55-16.15 8.35-16.15L8.35-16.15L8.35-16.15Q9.74-16.15 10.76-15.66L10.76-15.66L10.76-15.66Q11.77-15.17 12.79-14.30L12.79-14.30L12.64-17.02L12.64-23.08L15.28-23.08L15.28 0L13.14 0L12.88-1.86L12.82-1.86L12.82-1.86Q11.89-0.93 10.67-0.28L10.67-0.28L10.67-0.28Q9.45 0.38 8.03 0.38ZM8.61-1.83L8.61-1.83L8.61-1.83Q10.79-1.83 12.64-4.00L12.64-4.00L12.64-12.27L12.64-12.27Q10.79-13.92 8.82-13.92L8.82-13.92L8.82-13.92Q6.90-13.92 5.58-12.25L5.58-12.25L5.58-12.25Q4.26-10.59 4.26-7.89L4.26-7.89L4.26-7.89Q4.26-5.05 5.39-3.44L5.39-3.44L5.39-3.44Q6.53-1.83 8.61-1.83Z" transform="translate(77.372 25.52)"></path></g></svg></g> <!----></g>  <!----></svg>